<mxfile host="app.diagrams.net" agent="Mozilla/5.0 (Windows NT 10.0; Win64; x64) AppleWebKit/537.36 (KHTML, like Gecko) Chrome/138.0.0.0 Safari/537.36 Edg/138.0.0.0" version="27.2.0">
  <diagram name="StrÃ¡nka-1" id="vD2Ix_AhVlFjHrB1GI5O">
    <mxGraphModel dx="719" dy="480" grid="1" gridSize="5" guides="1" tooltips="1" connect="1" arrows="1" fold="1" page="1" pageScale="1" pageWidth="827" pageHeight="1169" math="0" shadow="0">
      <root>
        <mxCell id="0" />
        <mxCell id="1" parent="0" />
        <mxCell id="WspOGfHuau4XI5KVqoiT-1" value="ATmega328p" style="rounded=1;whiteSpace=wrap;html=1;" vertex="1" parent="1">
          <mxGeometry x="354" y="554" width="120" height="60" as="geometry" />
        </mxCell>
        <mxCell id="WspOGfHuau4XI5KVqoiT-3" value="DS1302" style="rounded=1;whiteSpace=wrap;html=1;" vertex="1" parent="1">
          <mxGeometry x="354" y="725" width="120" height="60" as="geometry" />
        </mxCell>
        <mxCell id="WspOGfHuau4XI5KVqoiT-4" value="" style="endArrow=classic;startArrow=classic;html=1;rounded=0;exitX=0.5;exitY=0;exitDx=0;exitDy=0;entryX=0.5;entryY=1;entryDx=0;entryDy=0;" edge="1" parent="1" source="WspOGfHuau4XI5KVqoiT-3" target="WspOGfHuau4XI5KVqoiT-1">
          <mxGeometry width="50" height="50" relative="1" as="geometry">
            <mxPoint x="390" y="310" as="sourcePoint" />
            <mxPoint x="440" y="260" as="targetPoint" />
          </mxGeometry>
        </mxCell>
        <mxCell id="WspOGfHuau4XI5KVqoiT-5" value="DHT11" style="rounded=1;whiteSpace=wrap;html=1;" vertex="1" parent="1">
          <mxGeometry x="130" y="554" width="120" height="60" as="geometry" />
        </mxCell>
        <mxCell id="WspOGfHuau4XI5KVqoiT-6" value="Soil moisture sensor" style="rounded=1;whiteSpace=wrap;html=1;" vertex="1" parent="1">
          <mxGeometry x="130" y="634" width="120" height="60" as="geometry" />
        </mxCell>
        <mxCell id="WspOGfHuau4XI5KVqoiT-10" value="LCD 20x4" style="rounded=1;whiteSpace=wrap;html=1;" vertex="1" parent="1">
          <mxGeometry x="354" y="385" width="120" height="60" as="geometry" />
        </mxCell>
        <mxCell id="WspOGfHuau4XI5KVqoiT-11" value="" style="endArrow=classic;html=1;rounded=0;entryX=0.5;entryY=1;entryDx=0;entryDy=0;exitX=0.5;exitY=0;exitDx=0;exitDy=0;" edge="1" parent="1" source="WspOGfHuau4XI5KVqoiT-1" target="WspOGfHuau4XI5KVqoiT-10">
          <mxGeometry width="50" height="50" relative="1" as="geometry">
            <mxPoint x="390" y="210" as="sourcePoint" />
            <mxPoint x="440" y="160" as="targetPoint" />
          </mxGeometry>
        </mxCell>
        <mxCell id="WspOGfHuau4XI5KVqoiT-12" value="Rotary encoder" style="rounded=1;whiteSpace=wrap;html=1;" vertex="1" parent="1">
          <mxGeometry x="130" y="474" width="120" height="60" as="geometry" />
        </mxCell>
        <mxCell id="WspOGfHuau4XI5KVqoiT-13" value="Water pump" style="rounded=1;whiteSpace=wrap;html=1;" vertex="1" parent="1">
          <mxGeometry x="565" y="520" width="120" height="60" as="geometry" />
        </mxCell>
        <mxCell id="WspOGfHuau4XI5KVqoiT-14" value="Heaters" style="rounded=1;whiteSpace=wrap;html=1;" vertex="1" parent="1">
          <mxGeometry x="565" y="590" width="120" height="60" as="geometry" />
        </mxCell>
        <mxCell id="WspOGfHuau4XI5KVqoiT-15" value="LED grow" style="rounded=1;whiteSpace=wrap;html=1;" vertex="1" parent="1">
          <mxGeometry x="565" y="450" width="120" height="60" as="geometry" />
        </mxCell>
        <mxCell id="WspOGfHuau4XI5KVqoiT-16" value="Fans" style="rounded=1;whiteSpace=wrap;html=1;" vertex="1" parent="1">
          <mxGeometry x="565" y="660" width="120" height="60" as="geometry" />
        </mxCell>
        <mxCell id="WspOGfHuau4XI5KVqoiT-17" value="" style="endArrow=classic;html=1;rounded=0;exitX=1;exitY=0.5;exitDx=0;exitDy=0;entryX=0;entryY=0.5;entryDx=0;entryDy=0;" edge="1" parent="1" source="WspOGfHuau4XI5KVqoiT-5" target="WspOGfHuau4XI5KVqoiT-1">
          <mxGeometry width="50" height="50" relative="1" as="geometry">
            <mxPoint x="555" y="560" as="sourcePoint" />
            <mxPoint x="605" y="510" as="targetPoint" />
          </mxGeometry>
        </mxCell>
        <mxCell id="WspOGfHuau4XI5KVqoiT-20" value="" style="endArrow=classic;html=1;rounded=0;exitX=1;exitY=0.5;exitDx=0;exitDy=0;entryX=0;entryY=0.25;entryDx=0;entryDy=0;" edge="1" parent="1" source="WspOGfHuau4XI5KVqoiT-12" target="WspOGfHuau4XI5KVqoiT-1">
          <mxGeometry width="50" height="50" relative="1" as="geometry">
            <mxPoint x="380" y="550" as="sourcePoint" />
            <mxPoint x="430" y="500" as="targetPoint" />
            <Array as="points">
              <mxPoint x="280" y="504" />
              <mxPoint x="280" y="569" />
            </Array>
          </mxGeometry>
        </mxCell>
        <mxCell id="WspOGfHuau4XI5KVqoiT-21" value="" style="endArrow=classic;html=1;rounded=0;exitX=1;exitY=0.5;exitDx=0;exitDy=0;entryX=0;entryY=0.75;entryDx=0;entryDy=0;" edge="1" parent="1" source="WspOGfHuau4XI5KVqoiT-6" target="WspOGfHuau4XI5KVqoiT-1">
          <mxGeometry width="50" height="50" relative="1" as="geometry">
            <mxPoint x="380" y="630" as="sourcePoint" />
            <mxPoint x="430" y="580" as="targetPoint" />
            <Array as="points">
              <mxPoint x="280" y="664" />
              <mxPoint x="280" y="599" />
            </Array>
          </mxGeometry>
        </mxCell>
        <mxCell id="WspOGfHuau4XI5KVqoiT-22" value="" style="endArrow=classic;html=1;rounded=0;entryX=0;entryY=0.5;entryDx=0;entryDy=0;exitX=0.75;exitY=0;exitDx=0;exitDy=0;" edge="1" parent="1" source="WspOGfHuau4XI5KVqoiT-1" target="WspOGfHuau4XI5KVqoiT-15">
          <mxGeometry width="50" height="50" relative="1" as="geometry">
            <mxPoint x="430" y="595" as="sourcePoint" />
            <mxPoint x="480" y="545" as="targetPoint" />
            <Array as="points">
              <mxPoint x="445" y="480" />
            </Array>
          </mxGeometry>
        </mxCell>
        <mxCell id="WspOGfHuau4XI5KVqoiT-24" value="" style="endArrow=classic;html=1;rounded=0;exitX=1;exitY=0.25;exitDx=0;exitDy=0;entryX=0;entryY=0.5;entryDx=0;entryDy=0;" edge="1" parent="1" source="WspOGfHuau4XI5KVqoiT-1" target="WspOGfHuau4XI5KVqoiT-13">
          <mxGeometry width="50" height="50" relative="1" as="geometry">
            <mxPoint x="500" y="575" as="sourcePoint" />
            <mxPoint x="550" y="525" as="targetPoint" />
            <Array as="points">
              <mxPoint x="520" y="569" />
              <mxPoint x="520" y="550" />
            </Array>
          </mxGeometry>
        </mxCell>
        <mxCell id="WspOGfHuau4XI5KVqoiT-26" value="" style="endArrow=classic;html=1;rounded=0;exitX=1;exitY=0.75;exitDx=0;exitDy=0;entryX=0;entryY=0.5;entryDx=0;entryDy=0;" edge="1" parent="1" source="WspOGfHuau4XI5KVqoiT-1" target="WspOGfHuau4XI5KVqoiT-14">
          <mxGeometry width="50" height="50" relative="1" as="geometry">
            <mxPoint x="555" y="610" as="sourcePoint" />
            <mxPoint x="605" y="560" as="targetPoint" />
            <Array as="points">
              <mxPoint x="520" y="600" />
              <mxPoint x="520" y="620" />
            </Array>
          </mxGeometry>
        </mxCell>
        <mxCell id="WspOGfHuau4XI5KVqoiT-27" value="" style="endArrow=classic;html=1;rounded=0;entryX=0;entryY=0.5;entryDx=0;entryDy=0;exitX=0.75;exitY=1;exitDx=0;exitDy=0;" edge="1" parent="1" source="WspOGfHuau4XI5KVqoiT-1" target="WspOGfHuau4XI5KVqoiT-16">
          <mxGeometry width="50" height="50" relative="1" as="geometry">
            <mxPoint x="555" y="655" as="sourcePoint" />
            <mxPoint x="605" y="605" as="targetPoint" />
            <Array as="points">
              <mxPoint x="445" y="690" />
            </Array>
          </mxGeometry>
        </mxCell>
      </root>
    </mxGraphModel>
  </diagram>
</mxfile>
